<svg width="102" height="73" viewBox="0 0 102 73" fill="none" xmlns="http://www.w3.org/2000/svg">
<path d="M0.046875 57.6562C0.046875 56.5938 0.109375 55.4688 0.234375 54.2812C0.890625 48.9375 2.57812 44.1875 5.29688 40.0312C8.60938 34.9375 12.5938 32.3906 17.25 32.3906C18.5 32.3906 19.7031 32.5469 20.8594 32.8594C24.9844 34.0469 27.0469 36.9531 27.0469 41.5781C27.0469 41.9219 27.0312 42.2812 27 42.6562C26.6875 46.8438 24.8125 50.3594 21.375 53.2031C18 56.0156 14.0781 57.4219 9.60938 57.4219C8.76562 57.4219 7.9375 57.3438 7.125 57.1875C7.0625 57.6562 7.03125 58.3125 7.03125 59.1562C7.03125 60.9688 7.34375 62.375 7.96875 63.375C8.8125 64.6562 10.5469 65.4062 13.1719 65.625C14.3281 65.625 15.4688 65.5 16.5938 65.25C18.5625 64.7812 20.8906 63.6719 23.5781 61.9219C25.3281 60.7656 26.5625 60.1875 27.2812 60.1875C27.6875 60.1875 28.1094 60.3125 28.5469 60.5625C29.5469 61.1562 30.0469 62.0156 30.0469 63.1406C30.0469 63.5156 29.9688 63.9219 29.8125 64.3594C28.9688 66.3906 26.4375 68.3125 22.2188 70.125C18.3125 71.8125 14.875 72.6562 11.9062 72.6562C10.7812 72.6562 9.73438 72.5625 8.76562 72.375C2.95312 71.1875 0.046875 66.2812 0.046875 57.6562ZM15.0938 39.75C12.25 41.6562 10.0156 45.2812 8.39062 50.625C9.17188 50.8125 9.92188 50.9062 10.6406 50.9062C13.2344 50.9062 15.5 50.1094 17.4375 48.5156C19.5938 46.7656 20.6719 44.6875 20.6719 42.2812C20.6719 39.875 19.9062 38.6562 18.375 38.625C17.2812 38.6562 16.1875 39.0312 15.0938 39.75ZM50.4375 72C42.9062 71.6875 37.3281 67.0938 33.7031 58.2188C31.0156 51.5312 29.6719 43.3438 29.6719 33.6562C29.6719 33.1562 29.7031 32.5156 29.7656 31.7344C30.2031 25.1406 31.4219 19.0938 33.4219 13.5938C36.6719 4.71875 41.2656 0.28125 47.2031 0.28125C47.5156 0.28125 47.8438 0.296875 48.1875 0.328125C53.5938 0.671875 56.2969 3.8125 56.2969 9.75C56.2969 16.2188 53.5156 23.4062 47.9531 31.3125C44.4219 36.3438 40.7188 40.4219 36.8438 43.5469C37.9062 49.4844 39.0781 53.9375 40.3594 56.9062C42.7344 62.4062 46.2656 65.1562 50.9531 65.1562C51.2656 65.1562 51.5938 65.125 51.9375 65.0625C52.9688 64.875 54.4062 64.125 56.25 62.8125C58.0312 61.5938 59.4219 60.9844 60.4219 60.9844C60.8594 60.9844 61.2812 61.125 61.6875 61.4062C62.5938 62.0312 63.0469 62.875 63.0469 63.9375C62.9844 65.5625 61.8281 67.2344 59.5781 68.9531C56.7656 70.9844 53.7188 72 50.4375 72ZM47.25 7.35938C45.4062 7.39062 43.7812 8.1875 42.375 9.75C38.8125 13.7812 36.8594 22.2031 36.5156 35.0156C38.3906 33.1094 40.2656 30.8594 42.1406 28.2656C47.3281 21.1719 49.9219 15.1875 49.9219 10.3125C49.9219 10.0625 49.8594 9.76562 49.7344 9.42188C49.2344 8.04688 48.4062 7.35938 47.25 7.35938ZM76.125 72C68.5938 71.6875 63.0156 67.0938 59.3906 58.2188C56.7031 51.5312 55.3594 43.3438 55.3594 33.6562C55.3594 33.1562 55.3906 32.5156 55.4531 31.7344C55.8906 25.1406 57.1094 19.0938 59.1094 13.5938C62.3594 4.71875 66.9531 0.28125 72.8906 0.28125C73.2031 0.28125 73.5312 0.296875 73.875 0.328125C79.2812 0.671875 81.9844 3.8125 81.9844 9.75C81.9844 16.2188 79.2031 23.4062 73.6406 31.3125C70.1094 36.3438 66.4062 40.4219 62.5312 43.5469C63.5938 49.4844 64.7656 53.9375 66.0469 56.9062C68.4219 62.4062 71.9531 65.1562 76.6406 65.1562C76.9531 65.1562 77.2812 65.125 77.625 65.0625C78.6562 64.875 80.0938 64.125 81.9375 62.8125C83.7188 61.5938 85.1094 60.9844 86.1094 60.9844C86.5469 60.9844 86.9688 61.125 87.375 61.4062C88.2812 62.0312 88.7344 62.875 88.7344 63.9375C88.6719 65.5625 87.5156 67.2344 85.2656 68.9531C82.4531 70.9844 79.4062 72 76.125 72ZM72.9375 7.35938C71.0938 7.39062 69.4688 8.1875 68.0625 9.75C64.5 13.7812 62.5469 22.2031 62.2031 35.0156C64.0781 33.1094 65.9531 30.8594 67.8281 28.2656C73.0156 21.1719 75.6094 15.1875 75.6094 10.3125C75.6094 10.0625 75.5469 9.76562 75.4219 9.42188C74.9219 8.04688 74.0938 7.35938 72.9375 7.35938ZM93.0469 67.7812C93.0469 66.9688 93.25 66.2188 93.6562 65.5312C94.5 64.1562 95.7031 63.4688 97.2656 63.4688C98.0781 63.4688 98.8281 63.6875 99.5156 64.125C100.891 64.9375 101.578 66.1562 101.578 67.7812C101.578 68.5625 101.359 69.2969 100.922 69.9844C100.078 71.3281 98.8594 72 97.2656 72C96.4844 72 95.7344 71.7812 95.0156 71.3438C93.7031 70.5 93.0469 69.3125 93.0469 67.7812Z" fill="black"/>
</svg>
