<svg width="451" height="10" viewBox="0 0 451 10" fill="none" xmlns="http://www.w3.org/2000/svg">
<path fill-rule="evenodd" clip-rule="evenodd" d="M208.367 6.31926C209.775 8.00428 211.372 9.91358 214.417 9.91358C217.461 9.91358 219.057 8.00321 220.465 6.31848L220.466 6.31731L220.469 6.3134C221.786 4.73986 223.032 3.25139 225.5 3.18917C227.967 3.25139 229.213 4.73985 230.531 6.31337L230.534 6.31731C231.942 8.00233 233.538 9.91163 236.583 9.91163C239.627 9.91163 241.225 8.00233 242.633 6.31731L242.636 6.3134C243.981 4.70588 245.253 3.18714 247.828 3.18714C250.404 3.18714 251.676 4.70711 253.021 6.31534L253.022 6.31731C254.43 8.00233 256.027 9.91163 259.072 9.91163C262.117 9.91163 263.713 8.00233 265.121 6.31731L265.124 6.31337C266.47 4.70587 267.741 3.18714 270.316 3.18714C272.892 3.18714 274.163 4.7059 275.509 6.31343L275.512 6.31731C276.92 8.00233 278.516 9.91163 281.561 9.91163C284.606 9.91163 286.202 8.00233 287.611 6.31731L287.614 6.31337C288.959 4.70587 290.231 3.18714 292.806 3.18714C295.382 3.18714 296.654 4.70713 297.999 6.31537L298 6.31731C299.408 8.00233 301.005 9.91163 304.05 9.91163C307.095 9.91163 308.691 8.00233 310.099 6.31731L310.102 6.31343C311.448 4.7059 312.719 3.18714 315.294 3.18714C317.87 3.18714 319.141 4.70587 320.486 6.31337L320.49 6.31731C321.898 8.00233 323.494 9.91163 326.539 9.91163C329.583 9.91163 331.18 8.00233 332.588 6.31731L332.59 6.31526C333.935 4.70706 335.206 3.18714 337.784 3.18714C340.36 3.18714 341.631 4.70587 342.977 6.31337L342.98 6.31731C344.388 8.00233 345.986 9.91163 349.03 9.91163C352.074 9.91163 353.671 8.00233 355.079 6.31731C356.425 4.70834 357.697 3.18714 360.274 3.18714C362.85 3.18714 364.121 4.70587 365.466 6.31337L365.47 6.31731C366.878 8.00233 368.474 9.91163 371.519 9.91163C374.563 9.91163 376.161 8.00233 377.569 6.31731L377.572 6.31343C378.917 4.7059 380.189 3.18714 382.764 3.18714C385.339 3.18714 386.611 4.7059 387.956 6.31343L387.959 6.31731C389.367 8.00233 390.965 9.91163 394.009 9.91163C397.053 9.91163 398.65 8.00233 400.058 6.31731L400.061 6.31337C401.407 4.70587 402.678 3.18714 405.253 3.18714C407.831 3.18714 409.103 4.70834 410.449 6.31731C411.857 8.00233 413.453 9.91163 416.498 9.91163C419.542 9.91163 421.14 8.00233 422.548 6.31731L422.551 6.31337C423.896 4.70587 425.168 3.18714 427.743 3.18714C430.321 3.18714 431.592 4.70772 432.939 6.31826L432.939 6.31926C434.347 8.00428 435.944 9.91358 438.989 9.91358C442.033 9.91358 443.629 8.00323 445.037 6.3185L445.038 6.31731L445.042 6.31337C446.387 4.70587 447.658 3.18714 450.234 3.18714C450.657 3.18714 451 2.57671 451 1.82197C451 1.06722 450.657 0.456787 450.234 0.456787C447.189 0.456787 445.593 2.36571 444.184 4.0506L444.183 4.05111L444.18 4.05504C442.834 5.66255 441.563 7.18127 438.988 7.18127C436.41 7.18127 435.138 5.66202 433.792 4.05111C432.384 2.36609 430.788 0.456787 427.743 0.456787C424.699 0.456787 423.103 2.36567 421.694 4.05055L421.694 4.05111L421.69 4.05498C420.345 5.66251 419.074 7.18127 416.498 7.18127C413.921 7.18127 412.648 5.66202 411.303 4.05111C409.895 2.36609 408.298 0.456787 405.253 0.456787C402.208 0.456787 400.612 2.36609 399.204 4.05111L399.201 4.05498C397.855 5.66251 396.584 7.18127 394.009 7.18127C391.431 7.18127 390.159 5.66202 388.813 4.05111C387.405 2.36609 385.809 0.456787 382.764 0.456787C379.719 0.456787 378.123 2.36609 376.715 4.05111L376.711 4.05498C375.366 5.66251 374.095 7.18127 371.519 7.18127C368.942 7.18127 367.669 5.66202 366.324 4.05111C364.916 2.36609 363.319 0.456787 360.274 0.456787C357.23 0.456787 355.633 2.36567 354.224 4.05055L354.224 4.05111C352.878 5.66007 351.606 7.18127 349.029 7.18127C346.451 7.18127 345.179 5.66202 343.833 4.05111C342.425 2.36609 340.829 0.456787 337.784 0.456787C334.739 0.456787 333.143 2.36609 331.734 4.05111L331.731 4.05504C330.386 5.66255 329.114 7.18127 326.539 7.18127C323.962 7.18127 322.689 5.66202 321.344 4.05111C319.936 2.36609 318.339 0.456787 315.294 0.456787C312.249 0.456787 310.653 2.36609 309.245 4.05111L309.242 4.05504C307.896 5.66255 306.625 7.18127 304.05 7.18127C301.472 7.18127 300.201 5.66202 298.855 4.05111C297.447 2.36609 295.851 0.456787 292.806 0.456787C289.761 0.456787 288.165 2.36609 286.757 4.05111L286.753 4.05498C285.408 5.66251 284.137 7.18127 281.561 7.18127C278.984 7.18127 277.711 5.66202 276.366 4.05111C274.958 2.36609 273.361 0.456787 270.316 0.456787C267.271 0.456787 265.675 2.36609 264.267 4.05111L264.264 4.05498C262.918 5.66251 261.647 7.18127 259.072 7.18127C256.494 7.18127 255.223 5.66202 253.877 4.05111C252.469 2.36609 250.873 0.456787 247.828 0.456787C244.783 0.456787 243.187 2.36569 241.778 4.05058L241.778 4.05111L241.774 4.05501C240.429 5.66253 239.157 7.18127 236.582 7.18127C234.005 7.18127 232.734 5.66202 231.388 4.05111C230.048 2.44713 228.537 0.639928 225.768 0.4698C225.733 0.461221 225.698 0.456787 225.662 0.456787C225.607 0.456787 225.553 0.457394 225.5 0.458597C225.447 0.457394 225.393 0.456787 225.338 0.456787C225.302 0.456787 225.267 0.461221 225.232 0.469799C222.464 0.639908 220.953 2.44673 219.611 4.05058L219.611 4.05111L219.608 4.05504C218.262 5.66255 216.991 7.18127 214.416 7.18127C211.838 7.18127 210.566 5.66202 209.22 4.05111C207.812 2.36609 206.216 0.456787 203.171 0.456787C200.127 0.456787 198.531 2.36567 197.122 4.05055L197.122 4.05111L197.118 4.05501C195.773 5.66253 194.501 7.18127 191.926 7.18127C189.349 7.18127 188.076 5.66202 186.731 4.05111C185.323 2.36609 183.726 0.456787 180.681 0.456787C177.636 0.456787 176.04 2.36609 174.632 4.05111L174.629 4.05501C173.283 5.66253 172.012 7.18127 169.437 7.18127C166.859 7.18127 165.587 5.66202 164.241 4.05111C162.833 2.36609 161.237 0.456787 158.192 0.456787C155.147 0.456787 153.551 2.36609 152.143 4.05111L152.139 4.05501C150.794 5.66253 149.522 7.18127 146.947 7.18127C144.37 7.18127 143.097 5.66202 141.752 4.05111C140.344 2.36609 138.747 0.456787 135.702 0.456787C132.658 0.456787 131.061 2.36569 129.652 4.05058L129.652 4.05111C128.306 5.66007 127.034 7.18127 124.457 7.18127C121.879 7.18127 120.607 5.66202 119.261 4.05111C117.853 2.36609 116.257 0.456787 113.212 0.456787C110.167 0.456787 108.57 2.36609 107.162 4.05111L107.159 4.05503C105.814 5.66254 104.542 7.18127 101.967 7.18127C99.3896 7.18127 98.1173 5.66202 96.7717 4.05111C95.3636 2.36609 93.7672 0.456787 90.7223 0.456787C87.6773 0.456787 86.0809 2.36609 84.6729 4.05111L84.6696 4.05501C83.3241 5.66253 82.0529 7.18127 79.4775 7.18127C76.9001 7.18127 75.6289 5.66202 74.2833 4.05111C72.8752 2.36609 71.2788 0.456787 68.2339 0.456787C65.1889 0.456787 63.5925 2.36609 62.1845 4.05111L62.1812 4.05502C60.8357 5.66253 59.5644 7.18127 56.9891 7.18127C54.4117 7.18127 53.1394 5.66202 51.7938 4.05111C50.3857 2.36609 48.7893 0.456787 45.7444 0.456787C42.6994 0.456787 41.103 2.36609 39.695 4.05111L39.6917 4.05502C38.3462 5.66253 37.0749 7.18127 34.4996 7.18127C31.9222 7.18127 30.651 5.66202 29.3053 4.05111C27.8973 2.36609 26.3009 0.456787 23.2559 0.456787C20.2113 0.456787 18.615 2.36567 17.2059 4.05056L17.2055 4.05111L17.2022 4.05502C15.8567 5.66253 14.5854 7.18127 12.0101 7.18127C9.43267 7.18127 8.16148 5.66202 6.81583 4.05111C5.40777 2.36609 3.81139 0.456787 0.766439 0.456787C0.342708 0.456787 0 1.06722 0 1.82197C0 2.57671 0.342708 3.18714 0.766439 3.18714C3.34178 3.18714 4.613 4.70588 5.95853 6.3134L5.9618 6.31731C7.36986 8.00233 8.96624 9.91163 12.0112 9.91163C15.055 9.91163 16.6525 8.00233 18.0606 6.31731L18.0639 6.3134C19.4094 4.70588 20.6806 3.18714 23.2559 3.18714C25.8323 3.18714 27.1035 4.7071 28.4486 6.31533L28.4502 6.31731C29.8583 8.00233 31.4547 9.91163 34.4996 9.91163C37.5446 9.91163 39.1409 8.00233 40.549 6.31731L40.5523 6.3134C41.8978 4.70588 43.169 3.18714 45.7444 3.18714C48.3197 3.18714 49.5909 4.70588 50.9364 6.31339L50.9397 6.31731C52.3478 8.00233 53.9442 9.91163 56.9891 9.91163C60.0341 9.91163 61.6304 8.00233 63.0385 6.31731L63.0418 6.3134C64.3873 4.70588 65.6585 3.18714 68.2339 3.18714C70.8102 3.18714 72.0815 4.70711 73.4265 6.31534L73.4281 6.31731C74.8362 8.00233 76.4326 9.91163 79.4775 9.91163C82.5225 9.91163 84.1189 8.00233 85.5269 6.31731L85.5302 6.31339C86.8757 4.70588 88.1469 3.18714 90.7223 3.18714C93.2976 3.18714 94.5688 4.70588 95.9144 6.3134L95.9176 6.31731C97.3257 8.00233 98.9221 9.91163 101.967 9.91163C105.011 9.91163 106.608 8.00233 108.016 6.31731L108.018 6.31532C109.363 4.70709 110.634 3.18714 113.212 3.18714C115.788 3.18714 117.059 4.70588 118.405 6.31339L118.408 6.31731C119.816 8.00233 121.414 9.91163 124.458 9.91163C127.501 9.91163 129.099 8.00233 130.507 6.31731C131.853 4.70834 133.125 3.18714 135.702 3.18714C138.278 3.18714 139.549 4.70588 140.895 6.3134L140.898 6.31731C142.306 8.00233 143.902 9.91163 146.947 9.91163C149.991 9.91163 151.588 8.00233 152.997 6.31731L153 6.3134C154.345 4.70588 155.617 3.18714 158.192 3.18714C160.767 3.18714 162.038 4.70587 163.384 6.31337L163.387 6.31731C164.795 8.00233 166.393 9.91163 169.437 9.91163C172.481 9.91163 174.078 8.00233 175.486 6.31731L175.489 6.3134C176.835 4.70588 178.106 3.18714 180.681 3.18714C183.259 3.18714 184.531 4.70834 185.877 6.31731C187.285 8.00233 188.881 9.91163 191.926 9.91163C194.97 9.91163 196.567 8.00233 197.976 6.31731L197.979 6.3134C199.324 4.70588 200.596 3.18714 203.171 3.18714C205.749 3.18714 207.02 4.7077 208.367 6.31823L208.367 6.31926Z" fill="black"/>
</svg>
